<?xml version="1.0" encoding="UTF-8"?>
<svg xmlns="http://www.w3.org/2000/svg" xmlns:xlink="http://www.w3.org/1999/xlink" width="1235" height="650" viewBox="0 0 1.9 1"><defs><svg id="s" viewBox="-1 -1 2 2"><path fill="#FFFFFF" d="M0.9510565162951535,-0.3090169943749474-0.587785252292473,0.8090169943749475-1.8369701987210297e-16,-1.00.5877852522924731,0.8090169943749475-0.9510565162951538,-0.3090169943749469Z"/></svg></defs><rect width="100%" height="100%" fill="#FFFFFF"/><rect width="100%" y="0.0" height="0.12608430430398532" fill="#B22234"/><rect width="100%" y="0.28689138406280373" height="0.031110514252157228" fill="#B22234"/><rect width="100%" y="0.3545694990405998" height="0.00455345213355579" fill="#B22234"/><rect width="100%" y="0.37546234439621523" height="0.027557433132196923" fill="#B22234"/><rect width="100%" y="0.41035583162811234" height="0.15863790211159087" fill="#B22234"/><rect width="100%" y="0.6633779991214034" height="0.02571033170436362" fill="#B22234"/><rect width="100%" y="0.8248383359471203" height="0.17516166405287967" fill="#B22234"/><rect width="40%" height="53.84615384615385%" fill="#3C3B6E"/><use xlink:href="#s" x="0.05776300852932818" y="0.04827582904214869" width="0.011140649608010315" height="0.011140649608010315"/><use xlink:href="#s" x="0.16603821405974148" y="0.029884367905895312" width="0.04792357188051706" height="0.04792357188051706"/><use xlink:href="#s" x="0.30623861686225745" y="0.04341810404174461" width="0.020856099608818474" height="0.020856099608818474"/><use xlink:href="#s" x="0.4161145450203999" y="0.02662736553322037" width="0.05443757662586694" height="0.05443757662586694"/><use xlink:href="#s" x="0.5616868193301688" y="0.04553297317632257" width="0.016626361339662547" height="0.016626361339662547"/><use xlink:href="#s" x="0.6851956251443632" y="0.04237511232385026" width="0.022942083044607174" height="0.022942083044607174"/><use xlink:href="#s" x="0.11423018626024484" y="0.09525582728588584" width="0.024872960812843677" height="0.024872960812843677"/><use xlink:href="#s" x="0.23335316895965502" y="0.08771214331862937" width="0.03996032874735664" height="0.03996032874735664"/><use xlink:href="#s" x="0.3692038567616484" y="0.09689616445395605" width="0.02159228647670327" height="0.02159228647670327"/><use xlink:href="#s" x="0.48357369780057247" y="0.08459933882621344" width="0.04618593773218848" height="0.04618593773218848"/><use xlink:href="#s" x="0.6072536784838855" y="0.0816126528428597" width="0.05215930969889595" height="0.05215930969889595"/><use xlink:href="#s" x="0.03743017406950011" y="0.13563530227462828" width="0.05180631852766646" height="0.05180631852766646"/><use xlink:href="#s" x="0.18561146420928085" y="0.15714992574774236" width="0.008777071581438303" height="0.008777071581438303"/><use xlink:href="#s" x="0.30571734131331096" y="0.15058913618510575" width="0.021898650706711518" height="0.021898650706711518"/><use xlink:href="#s" x="0.42088844573705503" y="0.1390935739421832" width="0.04488977519255664" height="0.04488977519255664"/><use xlink:href="#s" x="0.5470779631083865" y="0.13861642464684798" width="0.04584407378322706" height="0.04584407378322706"/><use xlink:href="#s" x="0.6730266521960347" y="0.13789844706782953" width="0.047280028941264006" height="0.047280028941264006"/><use xlink:href="#s" x="0.10111262052783727" y="0.18983056924578595" width="0.05110809227765881" height="0.05110809227765881"/><use xlink:href="#s" x="0.23202492169473876" y="0.19407620374602078" width="0.04261682327718918" height="0.04261682327718918"/><use xlink:href="#s" x="0.35542746686422316" y="0.19081208224883847" width="0.049145066271553815" height="0.049145066271553815"/><use xlink:href="#s" x="0.47979628964767806" y="0.18851423836562672" width="0.05374075403797728" height="0.05374075403797728"/><use xlink:href="#s" x="0.6077691172540081" y="0.18982039930529007" width="0.0511284321586506" height="0.0511284321586506"/><use xlink:href="#s" x="0.04233130105805457" y="0.24822873695549044" width="0.04200406455055754" height="0.04200406455055754"/><use xlink:href="#s" x="0.16052036595469105" y="0.23975113518546026" width="0.05895926809061793" height="0.05895926809061793"/><use xlink:href="#s" x="0.2909181155646583" y="0.2434822181287608" width="0.051497102204016834" height="0.051497102204016834"/><use xlink:href="#s" x="0.4086094758887748" y="0.23450691178621064" width="0.06944771488911713" height="0.06944771488911713"/><use xlink:href="#s" x="0.5413675841251318" y="0.24059835335590093" width="0.057264831749736574" height="0.057264831749736574"/><use xlink:href="#s" x="0.6387991947688727" y="0.21136329733297515" width="0.1157349437955881" height="0.1157349437955881"/><use xlink:href="#s" x="0.1001796105840455" y="0.29658986699430184" width="0.05297411216524236" height="0.05297411216524236"/><use xlink:href="#s" x="0.22475636584146683" y="0.2944999555850565" width="0.05715393498373306" height="0.05715393498373306"/><use xlink:href="#s" x="0.33482466352729856" y="0.2779015866042216" width="0.09035067294540294" height="0.09035067294540294"/><use xlink:href="#s" x="0.4737448431766007" y="0.29015509958685703" width="0.06584364698013198" height="0.06584364698013198"/><use xlink:href="#s" x="0.5983118748490704" y="0.28805546459266007" width="0.07004291696852596" height="0.07004291696852596"/><use xlink:href="#s" x="0.031305534372741015" y="0.34489527796248454" width="0.06405559792118465" height="0.06405559792118465"/><use xlink:href="#s" x="0.17261947078315434" y="0.3595425477062312" width="0.03476105843369132" height="0.03476105843369132"/><use xlink:href="#s" x="0.2795382258866223" y="0.33979463614303246" width="0.07425688156008878" height="0.07425688156008878"/><use xlink:href="#s" x="0.4122799900412557" y="0.3458697336309992" width="0.062106686584155316" height="0.062106686584155316"/><use xlink:href="#s" x="0.5339756529155519" y="0.3408987298386287" width="0.07204869416889637" height="0.07204869416889637"/><use xlink:href="#s" x="0.6669219864739366" y="0.3471783967303468" width="0.0594893603854602" height="0.0594893603854602"/><use xlink:href="#s" x="0.09565993915325928" y="0.39976250325582335" width="0.0620134550268148" height="0.0620134550268148"/><use xlink:href="#s" x="0.21051778449484038" y="0.38795368193073776" width="0.08563109767698594" height="0.08563109767698594"/><use xlink:href="#s" x="0.35018581373213237" y="0.40095504450136304" width="0.059628372535735344" height="0.059628372535735344"/><use xlink:href="#s" x="0.4743886277167162" y="0.3984911918192802" width="0.06455607789990105" height="0.06455607789990105"/><use xlink:href="#s" x="0.5984126312789915" y="0.39584852871488874" width="0.06984140410868395" height="0.06984140410868395"/><use xlink:href="#s" x="0.030799876753443076" y="0.4520819280354943" width="0.06506691315978053" height="0.06506691315978053"/><use xlink:href="#s" x="0.16047981729870164" y="0.4550952019140862" width="0.059040365402596696" height="0.059040365402596696"/><use xlink:href="#s" x="0.2777322724655835" y="0.44568099041430137" width="0.07786878840216636" height="0.07786878840216636"/><use xlink:href="#s" x="0.4056353121424025" y="0.4469173634244537" width="0.07539604238186172" height="0.07539604238186172"/><use xlink:href="#s" x="0.47892053411891655" y="0.39353591873430105" width="0.18215893176216702" height="0.18215893176216702"/><use xlink:href="#s" x="0.6849924348370132" y="0.47294115278573107" width="0.023348463659307032" height="0.023348463659307032"/></svg>
