<?xml version="1.0" encoding="UTF-8"?>
<svg xmlns="http://www.w3.org/2000/svg" xmlns:xlink="http://www.w3.org/1999/xlink" width="1235" height="650" viewBox="0 0 1.9 1"><defs><svg id="s" viewBox="-1 -1 2 2"><path fill="#FFFFFF" d="M0.9510565162951535,-0.3090169943749474-0.587785252292473,0.8090169943749475-1.8369701987210297e-16,-1.00.5877852522924731,0.8090169943749475-0.9510565162951538,-0.3090169943749469Z"/></svg></defs><rect width="100%" height="100%" fill="#FFFFFF"/><rect width="100%" y="0.0" height="0.0894492189507253" fill="#B22234"/><rect width="100%" y="0.2907933578884329" height="0.07177932460061433" fill="#B22234"/><rect width="100%" y="0.42562870792303104" height="0.011007311812192692" fill="#B22234"/><rect width="100%" y="0.47367333713840715" height="0.01422633552910353" fill="#B22234"/><rect width="100%" y="0.4981748192793854" height="0.11038104692147473" fill="#B22234"/><rect width="100%" y="0.662888696593192" height="0.09248766912955214" fill="#B22234"/><rect width="100%" y="0.8884819707859671" height="0.11151802921403291" fill="#B22234"/><rect width="40%" height="53.84615384615385%" fill="#3C3B6E"/><use xlink:href="#s" x="0.051413471044845074" y="0.04192629155766558" width="0.02383972457697653" height="0.02383972457697653"/><use xlink:href="#s" x="0.1470982116242614" y="0.010944365470415253" width="0.08580357675147718" height="0.08580357675147718"/><use xlink:href="#s" x="0.2809048854807083" y="0.018084372660195448" width="0.07152356237191679" height="0.07152356237191679"/><use xlink:href="#s" x="0.4040643400904814" y="0.014577160603301928" width="0.07853798648570383" height="0.07853798648570383"/><use xlink:href="#s" x="0.5473693521883002" y="0.031215506034453982" width="0.04526129562339972" height="0.04526129562339972"/><use xlink:href="#s" x="0.6651618535270564" y="0.02234134070654347" width="0.06300962627922074" height="0.06300962627922074"/><use xlink:href="#s" x="0.09713822550827216" y="0.07816386653391316" width="0.05905688231678905" height="0.05905688231678905"/><use xlink:href="#s" x="0.22592337413322405" y="0.08028234849219838" width="0.054819918400218604" height="0.054819918400218604"/><use xlink:href="#s" x="0.3659743257533254" y="0.09366663344563302" width="0.028051348493349348" height="0.028051348493349348"/><use xlink:href="#s" x="0.47149722281663276" y="0.07252286384227373" width="0.07033888770006791" height="0.07033888770006791"/><use xlink:href="#s" x="0.5805682388335793" y="0.05492721319255364" width="0.10553018899950808" height="0.10553018899950808"/><use xlink:href="#s" x="0.024265036501257095" y="0.12247016470638528" width="0.07813659366415249" height="0.07813659366415249"/><use xlink:href="#s" x="0.17766276438508521" y="0.14920122592354673" width="0.02467447122982956" height="0.02467447122982956"/><use xlink:href="#s" x="0.307192966754414" y="0.1520647616262088" width="0.01894739982450546" height="0.01894739982450546"/><use xlink:href="#s" x="0.4179434673700283" y="0.13614859557515646" width="0.05077973192661009" height="0.05077973192661009"/><use xlink:href="#s" x="0.5385105921036588" y="0.13004905364212022" width="0.06297881579268258" height="0.06297881579268258"/><use xlink:href="#s" x="0.6556347606075646" y="0.1205065554793594" width="0.08206381211820422" height="0.08206381211820422"/><use xlink:href="#s" x="0.10080464853678313" y="0.1895225972547318" width="0.051724036259767105" height="0.051724036259767105"/><use xlink:href="#s" x="0.22214688967166238" y="0.1841981717229444" width="0.06237288732334196" height="0.06237288732334196"/><use xlink:href="#s" x="0.359332031184969" y="0.1947166465695843" width="0.04133593763006217" height="0.04133593763006217"/><use xlink:href="#s" x="0.46409457913507496" y="0.17281252785302362" width="0.0851441750631835" height="0.0851441750631835"/><use xlink:href="#s" x="0.606713529929603" y="0.18876481198088504" width="0.05323960680746067" height="0.05323960680746067"/><use xlink:href="#s" x="0.04939071786079356" y="0.25528815375822944" width="0.027885230945079546" height="0.027885230945079546"/><use xlink:href="#s" x="0.1602390427736283" y="0.23946981200439751" width="0.059521914452743414" height="0.059521914452743414"/><use xlink:href="#s" x="0.2957778707113447" y="0.24834197327544724" width="0.041777591910643966" height="0.041777591910643966"/><use xlink:href="#s" x="0.4054518286685872" y="0.23134926456602303" width="0.07576300932949236" height="0.07576300932949236"/><use xlink:href="#s" x="0.5140606205310551" y="0.21329138976182424" width="0.11187875893788994" height="0.11187875893788994"/><use xlink:href="#s" x="0.6316479600211986" y="0.2042120625853011" width="0.1300374132909362" height="0.1300374132909362"/><use xlink:href="#s" x="0.1053242893513643" y="0.3017345457616207" width="0.042684754630604754" height="0.042684754630604754"/><use xlink:href="#s" x="0.22435403729010195" y="0.29409762703369163" width="0.05795859208646282" height="0.05795859208646282"/><use xlink:href="#s" x="0.3047118209304663" y="0.24778874400738926" width="0.15057635813906753" height="0.15057635813906753"/><use xlink:href="#s" x="0.4781262109124719" y="0.29453646732272826" width="0.057080911508389516" height="0.057080911508389516"/><use xlink:href="#s" x="0.6086209415146312" y="0.2983645312582209" width="0.04942478363740433" height="0.04942478363740433"/><use xlink:href="#s" x="0.04285074062622676" y="0.3564404842159703" width="0.040965185414213144" height="0.040965185414213144"/><use xlink:href="#s" x="0.1739694698927649" y="0.36089254681584176" width="0.03206106021447022" height="0.03206106021447022"/><use xlink:href="#s" x="0.29540980831293245" y="0.3556662185693426" width="0.04251371670746849" height="0.04251371670746849"/><use xlink:href="#s" x="0.4266308375580475" y="0.360220581147791" width="0.033404991550571764" height="0.033404991550571764"/><use xlink:href="#s" x="0.5410827170308571" y="0.3480057939539339" width="0.057834565938285974" height="0.057834565938285974"/><use xlink:href="#s" x="0.6861694757144579" y="0.36642588597086795" width="0.020994381904417797" height="0.020994381904417797"/><use xlink:href="#s" x="0.11532931573877268" y="0.41943187984133673" width="0.022674701855787998" height="0.022674701855787998"/><use xlink:href="#s" x="0.24085999947277695" y="0.41829589690867436" width="0.024946667721112804" height="0.024946667721112804"/><use xlink:href="#s" x="0.34671720214247514" y="0.3974864329117058" width="0.06656559571504977" height="0.06656559571504977"/><use xlink:href="#s" x="0.49044805705844535" y="0.4145506211610094" width="0.03243721921644273" height="0.03243721921644273"/><use xlink:href="#s" x="0.624176643078293" y="0.4216125405141904" width="0.018313380510080704" height="0.018313380510080704"/><use xlink:href="#s" x="0.04170175129933605" y="0.46298380258138727" width="0.04326316406799458" height="0.04326316406799458"/><use xlink:href="#s" x="0.16605918453563753" y="0.46067456915102206" width="0.047881630928724946" height="0.047881630928724946"/><use xlink:href="#s" x="0.2992519360942077" y="0.46720065404292555" width="0.034829461144917986" height="0.034829461144917986"/><use xlink:href="#s" x="0.41064463431939485" y="0.45192668560144605" width="0.06537739802787698" height="0.06537739802787698"/><use xlink:href="#s" x="0.5597396941891666" y="0.474355078804551" width="0.02052061162166702" height="0.02052061162166702"/><use xlink:href="#s" x="0.6824334630657003" y="0.47038218101441814" width="0.02846640720193288" height="0.02846640720193288"/></svg>
