<?xml version="1.0" encoding="UTF-8"?>
<svg xmlns="http://www.w3.org/2000/svg" xmlns:xlink="http://www.w3.org/1999/xlink" width="1235" height="650" viewBox="0 0 1.9 1"><defs><svg id="s" viewBox="-1 -1 2 2"><path fill="#FFFFFF" d="M0.9510565162951535,-0.3090169943749474-0.587785252292473,0.8090169943749475-1.8369701987210297e-16,-1.00.5877852522924731,0.8090169943749475-0.9510565162951538,-0.3090169943749469Z"/></svg></defs><rect width="100%" height="100%" fill="#FFFFFF"/><rect width="100%" y="0.0" height="0.07692307692307693" fill="#B22234"/><rect width="100%" y="0.15384615384615385" height="0.07692307692307693" fill="#B22234"/><rect width="100%" y="0.3076923076923077" height="0.07692307692307693" fill="#B22234"/><rect width="100%" y="0.46153846153846156" height="0.07692307692307693" fill="#B22234"/><rect width="100%" y="0.6153846153846154" height="0.07692307692307693" fill="#B22234"/><rect width="100%" y="0.7692307692307693" height="0.07692307692307693" fill="#B22234"/><rect width="100%" y="0.9230769230769231" height="0.07692307692307693" fill="#B22234"/><rect width="40%" height="53.84615384615385%" fill="#3C3B6E"/><use xlink:href="#s" x="0.03256410256410257" y="0.023076923076923075" width="0.061538461538461535" height="0.061538461538461535"/><use xlink:href="#s" x="0.15923076923076923" y="0.023076923076923075" width="0.061538461538461535" height="0.061538461538461535"/><use xlink:href="#s" x="0.28589743589743594" y="0.023076923076923075" width="0.061538461538461535" height="0.061538461538461535"/><use xlink:href="#s" x="0.4125641025641026" y="0.023076923076923075" width="0.061538461538461535" height="0.061538461538461535"/><use xlink:href="#s" x="0.5392307692307693" y="0.023076923076923075" width="0.061538461538461535" height="0.061538461538461535"/><use xlink:href="#s" x="0.665897435897436" y="0.023076923076923075" width="0.061538461538461535" height="0.061538461538461535"/><use xlink:href="#s" x="0.0958974358974359" y="0.07692307692307691" width="0.061538461538461535" height="0.061538461538461535"/><use xlink:href="#s" x="0.22256410256410258" y="0.07692307692307691" width="0.061538461538461535" height="0.061538461538461535"/><use xlink:href="#s" x="0.3492307692307693" y="0.07692307692307691" width="0.061538461538461535" height="0.061538461538461535"/><use xlink:href="#s" x="0.47589743589743594" y="0.07692307692307691" width="0.061538461538461535" height="0.061538461538461535"/><use xlink:href="#s" x="0.6025641025641026" y="0.07692307692307691" width="0.061538461538461535" height="0.061538461538461535"/><use xlink:href="#s" x="0.03256410256410257" y="0.13076923076923075" width="0.061538461538461535" height="0.061538461538461535"/><use xlink:href="#s" x="0.15923076923076923" y="0.13076923076923075" width="0.061538461538461535" height="0.061538461538461535"/><use xlink:href="#s" x="0.28589743589743594" y="0.13076923076923075" width="0.061538461538461535" height="0.061538461538461535"/><use xlink:href="#s" x="0.4125641025641026" y="0.13076923076923075" width="0.061538461538461535" height="0.061538461538461535"/><use xlink:href="#s" x="0.5392307692307693" y="0.13076923076923075" width="0.061538461538461535" height="0.061538461538461535"/><use xlink:href="#s" x="0.665897435897436" y="0.13076923076923075" width="0.061538461538461535" height="0.061538461538461535"/><use xlink:href="#s" x="0.0958974358974359" y="0.1846153846153846" width="0.061538461538461535" height="0.061538461538461535"/><use xlink:href="#s" x="0.22256410256410258" y="0.1846153846153846" width="0.061538461538461535" height="0.061538461538461535"/><use xlink:href="#s" x="0.3492307692307693" y="0.1846153846153846" width="0.061538461538461535" height="0.061538461538461535"/><use xlink:href="#s" x="0.47589743589743594" y="0.1846153846153846" width="0.061538461538461535" height="0.061538461538461535"/><use xlink:href="#s" x="0.6025641025641026" y="0.1846153846153846" width="0.061538461538461535" height="0.061538461538461535"/><use xlink:href="#s" x="0.03256410256410257" y="0.23846153846153845" width="0.061538461538461535" height="0.061538461538461535"/><use xlink:href="#s" x="0.15923076923076923" y="0.23846153846153845" width="0.061538461538461535" height="0.061538461538461535"/><use xlink:href="#s" x="0.28589743589743594" y="0.23846153846153845" width="0.061538461538461535" height="0.061538461538461535"/><use xlink:href="#s" x="0.4125641025641026" y="0.23846153846153845" width="0.061538461538461535" height="0.061538461538461535"/><use xlink:href="#s" x="0.5392307692307693" y="0.23846153846153845" width="0.061538461538461535" height="0.061538461538461535"/><use xlink:href="#s" x="0.665897435897436" y="0.23846153846153845" width="0.061538461538461535" height="0.061538461538461535"/><use xlink:href="#s" x="0.0958974358974359" y="0.29230769230769227" width="0.061538461538461535" height="0.061538461538461535"/><use xlink:href="#s" x="0.22256410256410258" y="0.29230769230769227" width="0.061538461538461535" height="0.061538461538461535"/><use xlink:href="#s" x="0.3492307692307693" y="0.29230769230769227" width="0.061538461538461535" height="0.061538461538461535"/><use xlink:href="#s" x="0.47589743589743594" y="0.29230769230769227" width="0.061538461538461535" height="0.061538461538461535"/><use xlink:href="#s" x="0.6025641025641026" y="0.29230769230769227" width="0.061538461538461535" height="0.061538461538461535"/><use xlink:href="#s" x="0.03256410256410257" y="0.3461538461538461" width="0.061538461538461535" height="0.061538461538461535"/><use xlink:href="#s" x="0.15923076923076923" y="0.3461538461538461" width="0.061538461538461535" height="0.061538461538461535"/><use xlink:href="#s" x="0.28589743589743594" y="0.3461538461538461" width="0.061538461538461535" height="0.061538461538461535"/><use xlink:href="#s" x="0.4125641025641026" y="0.3461538461538461" width="0.061538461538461535" height="0.061538461538461535"/><use xlink:href="#s" x="0.5392307692307693" y="0.3461538461538461" width="0.061538461538461535" height="0.061538461538461535"/><use xlink:href="#s" x="0.665897435897436" y="0.3461538461538461" width="0.061538461538461535" height="0.061538461538461535"/><use xlink:href="#s" x="0.0958974358974359" y="0.39999999999999997" width="0.061538461538461535" height="0.061538461538461535"/><use xlink:href="#s" x="0.22256410256410258" y="0.39999999999999997" width="0.061538461538461535" height="0.061538461538461535"/><use xlink:href="#s" x="0.3492307692307693" y="0.39999999999999997" width="0.061538461538461535" height="0.061538461538461535"/><use xlink:href="#s" x="0.47589743589743594" y="0.39999999999999997" width="0.061538461538461535" height="0.061538461538461535"/><use xlink:href="#s" x="0.6025641025641026" y="0.39999999999999997" width="0.061538461538461535" height="0.061538461538461535"/><use xlink:href="#s" x="0.03256410256410257" y="0.4538461538461538" width="0.061538461538461535" height="0.061538461538461535"/><use xlink:href="#s" x="0.15923076923076923" y="0.4538461538461538" width="0.061538461538461535" height="0.061538461538461535"/><use xlink:href="#s" x="0.28589743589743594" y="0.4538461538461538" width="0.061538461538461535" height="0.061538461538461535"/><use xlink:href="#s" x="0.4125641025641026" y="0.4538461538461538" width="0.061538461538461535" height="0.061538461538461535"/><use xlink:href="#s" x="0.5392307692307693" y="0.4538461538461538" width="0.061538461538461535" height="0.061538461538461535"/><use xlink:href="#s" x="0.665897435897436" y="0.4538461538461538" width="0.061538461538461535" height="0.061538461538461535"/></svg>
