<?xml version="1.0" encoding="UTF-8"?>
<svg xmlns="http://www.w3.org/2000/svg" xmlns:xlink="http://www.w3.org/1999/xlink" width="1235" height="650" viewBox="0 0 1.9 1"><defs><path id="s" fill="#FFFFFF" d="M0.9510565162951535,-0.3090169943749474-0.587785252292473,0.8090169943749475-1.8369701987210297e-16,-1.00.5877852522924731,0.8090169943749475-0.9510565162951538,-0.3090169943749469Z"/></defs><rect width="100%" height="100%" fill="#FFFFFF"/><rect width="100%" y="0.0" height="0.07692307692307693" fill="#B22234"/><rect width="100%" y="0.15384615384615385" height="0.07692307692307693" fill="#B22234"/><rect width="100%" y="0.3076923076923077" height="0.07692307692307693" fill="#B22234"/><rect width="100%" y="0.46153846153846156" height="0.07692307692307693" fill="#B22234"/><rect width="100%" y="0.6153846153846154" height="0.07692307692307693" fill="#B22234"/><rect width="100%" y="0.7692307692307693" height="0.07692307692307693" fill="#B22234"/><rect width="100%" y="0.9230769230769231" height="0.07692307692307693" fill="#B22234"/><rect width="40%" height="53.84615384615385%" fill="#3C3B6E"/><use xlink:href="#s" transform="translate(0.06333333333333334 0.05384615384615384) scale(0.030769230769230767)"/><use xlink:href="#s" transform="translate(0.19 0.05384615384615384) scale(0.030769230769230767)"/><use xlink:href="#s" transform="translate(0.3166666666666667 0.05384615384615384) scale(0.030769230769230767)"/><use xlink:href="#s" transform="translate(0.44333333333333336 0.05384615384615384) scale(0.030769230769230767)"/><use xlink:href="#s" transform="translate(0.5700000000000001 0.05384615384615384) scale(0.030769230769230767)"/><use xlink:href="#s" transform="translate(0.6966666666666668 0.05384615384615384) scale(0.030769230769230767)"/><use xlink:href="#s" transform="translate(0.12666666666666668 0.10769230769230768) scale(0.030769230769230767)"/><use xlink:href="#s" transform="translate(0.25333333333333335 0.10769230769230768) scale(0.030769230769230767)"/><use xlink:href="#s" transform="translate(0.38000000000000006 0.10769230769230768) scale(0.030769230769230767)"/><use xlink:href="#s" transform="translate(0.5066666666666667 0.10769230769230768) scale(0.030769230769230767)"/><use xlink:href="#s" transform="translate(0.6333333333333334 0.10769230769230768) scale(0.030769230769230767)"/><use xlink:href="#s" transform="translate(0.06333333333333334 0.16153846153846152) scale(0.030769230769230767)"/><use xlink:href="#s" transform="translate(0.19 0.16153846153846152) scale(0.030769230769230767)"/><use xlink:href="#s" transform="translate(0.3166666666666667 0.16153846153846152) scale(0.030769230769230767)"/><use xlink:href="#s" transform="translate(0.44333333333333336 0.16153846153846152) scale(0.030769230769230767)"/><use xlink:href="#s" transform="translate(0.5700000000000001 0.16153846153846152) scale(0.030769230769230767)"/><use xlink:href="#s" transform="translate(0.6966666666666668 0.16153846153846152) scale(0.030769230769230767)"/><use xlink:href="#s" transform="translate(0.12666666666666668 0.21538461538461537) scale(0.030769230769230767)"/><use xlink:href="#s" transform="translate(0.25333333333333335 0.21538461538461537) scale(0.030769230769230767)"/><use xlink:href="#s" transform="translate(0.38000000000000006 0.21538461538461537) scale(0.030769230769230767)"/><use xlink:href="#s" transform="translate(0.5066666666666667 0.21538461538461537) scale(0.030769230769230767)"/><use xlink:href="#s" transform="translate(0.6333333333333334 0.21538461538461537) scale(0.030769230769230767)"/><use xlink:href="#s" transform="translate(0.06333333333333334 0.2692307692307692) scale(0.030769230769230767)"/><use xlink:href="#s" transform="translate(0.19 0.2692307692307692) scale(0.030769230769230767)"/><use xlink:href="#s" transform="translate(0.3166666666666667 0.2692307692307692) scale(0.030769230769230767)"/><use xlink:href="#s" transform="translate(0.44333333333333336 0.2692307692307692) scale(0.030769230769230767)"/><use xlink:href="#s" transform="translate(0.5700000000000001 0.2692307692307692) scale(0.030769230769230767)"/><use xlink:href="#s" transform="translate(0.6966666666666668 0.2692307692307692) scale(0.030769230769230767)"/><use xlink:href="#s" transform="translate(0.12666666666666668 0.32307692307692304) scale(0.030769230769230767)"/><use xlink:href="#s" transform="translate(0.25333333333333335 0.32307692307692304) scale(0.030769230769230767)"/><use xlink:href="#s" transform="translate(0.38000000000000006 0.32307692307692304) scale(0.030769230769230767)"/><use xlink:href="#s" transform="translate(0.5066666666666667 0.32307692307692304) scale(0.030769230769230767)"/><use xlink:href="#s" transform="translate(0.6333333333333334 0.32307692307692304) scale(0.030769230769230767)"/><use xlink:href="#s" transform="translate(0.06333333333333334 0.37692307692307686) scale(0.030769230769230767)"/><use xlink:href="#s" transform="translate(0.19 0.37692307692307686) scale(0.030769230769230767)"/><use xlink:href="#s" transform="translate(0.3166666666666667 0.37692307692307686) scale(0.030769230769230767)"/><use xlink:href="#s" transform="translate(0.44333333333333336 0.37692307692307686) scale(0.030769230769230767)"/><use xlink:href="#s" transform="translate(0.5700000000000001 0.37692307692307686) scale(0.030769230769230767)"/><use xlink:href="#s" transform="translate(0.6966666666666668 0.37692307692307686) scale(0.030769230769230767)"/><use xlink:href="#s" transform="translate(0.12666666666666668 0.43076923076923074) scale(0.030769230769230767)"/><use xlink:href="#s" transform="translate(0.25333333333333335 0.43076923076923074) scale(0.030769230769230767)"/><use xlink:href="#s" transform="translate(0.38000000000000006 0.43076923076923074) scale(0.030769230769230767)"/><use xlink:href="#s" transform="translate(0.5066666666666667 0.43076923076923074) scale(0.030769230769230767)"/><use xlink:href="#s" transform="translate(0.6333333333333334 0.43076923076923074) scale(0.030769230769230767)"/><use xlink:href="#s" transform="translate(0.06333333333333334 0.48461538461538456) scale(0.030769230769230767)"/><use xlink:href="#s" transform="translate(0.19 0.48461538461538456) scale(0.030769230769230767)"/><use xlink:href="#s" transform="translate(0.3166666666666667 0.48461538461538456) scale(0.030769230769230767)"/><use xlink:href="#s" transform="translate(0.44333333333333336 0.48461538461538456) scale(0.030769230769230767)"/><use xlink:href="#s" transform="translate(0.5700000000000001 0.48461538461538456) scale(0.030769230769230767)"/><use xlink:href="#s" transform="translate(0.6966666666666668 0.48461538461538456) scale(0.030769230769230767)"/></svg>
