<?xml version="1.0" encoding="UTF-8"?>
<svg xmlns="http://www.w3.org/2000/svg" xmlns:xlink="http://www.w3.org/1999/xlink" width="1235" height="650" viewBox="0 0 1.9 1"><defs><path id="s" fill="#FFFFFF" d="M0.9510565162951535,-0.3090169943749474-0.587785252292473,0.8090169943749475-1.8369701987210297e-16,-1.00.5877852522924731,0.8090169943749475-0.9510565162951538,-0.3090169943749469Z"/></defs><rect width="100%" height="100%" fill="#FFFFFF"/><rect width="100%" y="0.0" height="0.12608430430398532" fill="#B22234"/><rect width="100%" y="0.28689138406280373" height="0.031110514252157228" fill="#B22234"/><rect width="100%" y="0.3545694990405998" height="0.00455345213355579" fill="#B22234"/><rect width="100%" y="0.37546234439621523" height="0.027557433132196923" fill="#B22234"/><rect width="100%" y="0.41035583162811234" height="0.15863790211159087" fill="#B22234"/><rect width="100%" y="0.6633779991214034" height="0.02571033170436362" fill="#B22234"/><rect width="100%" y="0.8248383359471203" height="0.17516166405287967" fill="#B22234"/><rect width="40%" height="53.84615384615385%" fill="#3C3B6E"/><use xlink:href="#s" transform="translate(0.06333333333333334 0.05384615384615384) scale(0.005570324804005157)"/><use xlink:href="#s" transform="translate(0.19 0.05384615384615384) scale(0.02396178594025853)"/><use xlink:href="#s" transform="translate(0.3166666666666667 0.05384615384615384) scale(0.010428049804409237)"/><use xlink:href="#s" transform="translate(0.44333333333333336 0.05384615384615384) scale(0.02721878831293347)"/><use xlink:href="#s" transform="translate(0.5700000000000001 0.05384615384615384) scale(0.008313180669831274)"/><use xlink:href="#s" transform="translate(0.6966666666666668 0.05384615384615384) scale(0.011471041522303587)"/><use xlink:href="#s" transform="translate(0.12666666666666668 0.10769230769230768) scale(0.012436480406421839)"/><use xlink:href="#s" transform="translate(0.25333333333333335 0.10769230769230768) scale(0.01998016437367832)"/><use xlink:href="#s" transform="translate(0.38000000000000006 0.10769230769230768) scale(0.010796143238351635)"/><use xlink:href="#s" transform="translate(0.5066666666666667 0.10769230769230768) scale(0.02309296886609424)"/><use xlink:href="#s" transform="translate(0.6333333333333334 0.10769230769230768) scale(0.026079654849447974)"/><use xlink:href="#s" transform="translate(0.06333333333333334 0.16153846153846152) scale(0.02590315926383323)"/><use xlink:href="#s" transform="translate(0.19 0.16153846153846152) scale(0.0043885357907191514)"/><use xlink:href="#s" transform="translate(0.3166666666666667 0.16153846153846152) scale(0.010949325353355759)"/><use xlink:href="#s" transform="translate(0.44333333333333336 0.16153846153846152) scale(0.02244488759627832)"/><use xlink:href="#s" transform="translate(0.5700000000000001 0.16153846153846152) scale(0.02292203689161353)"/><use xlink:href="#s" transform="translate(0.6966666666666668 0.16153846153846152) scale(0.023640014470632003)"/><use xlink:href="#s" transform="translate(0.12666666666666668 0.21538461538461537) scale(0.025554046138829407)"/><use xlink:href="#s" transform="translate(0.25333333333333335 0.21538461538461537) scale(0.02130841163859459)"/><use xlink:href="#s" transform="translate(0.38000000000000006 0.21538461538461537) scale(0.024572533135776908)"/><use xlink:href="#s" transform="translate(0.5066666666666667 0.21538461538461537) scale(0.02687037701898864)"/><use xlink:href="#s" transform="translate(0.6333333333333334 0.21538461538461537) scale(0.0255642160793253)"/><use xlink:href="#s" transform="translate(0.06333333333333334 0.2692307692307692) scale(0.02100203227527877)"/><use xlink:href="#s" transform="translate(0.19 0.2692307692307692) scale(0.029479634045308966)"/><use xlink:href="#s" transform="translate(0.3166666666666667 0.2692307692307692) scale(0.025748551102008417)"/><use xlink:href="#s" transform="translate(0.44333333333333336 0.2692307692307692) scale(0.03472385744455857)"/><use xlink:href="#s" transform="translate(0.5700000000000001 0.2692307692307692) scale(0.028632415874868287)"/><use xlink:href="#s" transform="translate(0.6966666666666668 0.2692307692307692) scale(0.05786747189779405)"/><use xlink:href="#s" transform="translate(0.12666666666666668 0.32307692307692304) scale(0.02648705608262118)"/><use xlink:href="#s" transform="translate(0.25333333333333335 0.32307692307692304) scale(0.02857696749186653)"/><use xlink:href="#s" transform="translate(0.38000000000000006 0.32307692307692304) scale(0.04517533647270147)"/><use xlink:href="#s" transform="translate(0.5066666666666667 0.32307692307692304) scale(0.03292182349006599)"/><use xlink:href="#s" transform="translate(0.6333333333333334 0.32307692307692304) scale(0.03502145848426298)"/><use xlink:href="#s" transform="translate(0.06333333333333334 0.37692307692307686) scale(0.032027798960592324)"/><use xlink:href="#s" transform="translate(0.19 0.37692307692307686) scale(0.01738052921684566)"/><use xlink:href="#s" transform="translate(0.3166666666666667 0.37692307692307686) scale(0.03712844078004439)"/><use xlink:href="#s" transform="translate(0.44333333333333336 0.37692307692307686) scale(0.031053343292077658)"/><use xlink:href="#s" transform="translate(0.5700000000000001 0.37692307692307686) scale(0.03602434708444818)"/><use xlink:href="#s" transform="translate(0.6966666666666668 0.37692307692307686) scale(0.0297446801927301)"/><use xlink:href="#s" transform="translate(0.12666666666666668 0.43076923076923074) scale(0.0310067275134074)"/><use xlink:href="#s" transform="translate(0.25333333333333335 0.43076923076923074) scale(0.04281554883849297)"/><use xlink:href="#s" transform="translate(0.38000000000000006 0.43076923076923074) scale(0.029814186267867672)"/><use xlink:href="#s" transform="translate(0.5066666666666667 0.43076923076923074) scale(0.03227803894995052)"/><use xlink:href="#s" transform="translate(0.6333333333333334 0.43076923076923074) scale(0.03492070205434197)"/><use xlink:href="#s" transform="translate(0.06333333333333334 0.48461538461538456) scale(0.03253345657989026)"/><use xlink:href="#s" transform="translate(0.19 0.48461538461538456) scale(0.029520182701298348)"/><use xlink:href="#s" transform="translate(0.3166666666666667 0.48461538461538456) scale(0.03893439420108318)"/><use xlink:href="#s" transform="translate(0.44333333333333336 0.48461538461538456) scale(0.03769802119093086)"/><use xlink:href="#s" transform="translate(0.5700000000000001 0.48461538461538456) scale(0.09107946588108351)"/><use xlink:href="#s" transform="translate(0.6966666666666668 0.48461538461538456) scale(0.011674231829653516)"/></svg>
