<?xml version="1.0" encoding="UTF-8"?>
<svg xmlns="http://www.w3.org/2000/svg" xmlns:xlink="http://www.w3.org/1999/xlink" width="1235" height="650" viewBox="0 0 1.9 1"><defs><path id="s" fill="#FFFFFF" d="M0.9510565162951535,-0.3090169943749474-0.587785252292473,0.8090169943749475-1.8369701987210297e-16,-1.00.5877852522924731,0.8090169943749475-0.9510565162951538,-0.3090169943749469Z"/></defs><rect width="100%" height="100%" fill="#FFFFFF"/><rect width="100%" y="0.0" height="0.0894492189507253" fill="#B22234"/><rect width="100%" y="0.2907933578884329" height="0.07177932460061433" fill="#B22234"/><rect width="100%" y="0.42562870792303104" height="0.011007311812192692" fill="#B22234"/><rect width="100%" y="0.47367333713840715" height="0.01422633552910353" fill="#B22234"/><rect width="100%" y="0.4981748192793854" height="0.11038104692147473" fill="#B22234"/><rect width="100%" y="0.662888696593192" height="0.09248766912955214" fill="#B22234"/><rect width="100%" y="0.8884819707859671" height="0.11151802921403291" fill="#B22234"/><rect width="40%" height="53.84615384615385%" fill="#3C3B6E"/><use xlink:href="#s" transform="translate(0.06333333333333334 0.05384615384615384) scale(0.011919862288488264)"/><use xlink:href="#s" transform="translate(0.19 0.05384615384615384) scale(0.04290178837573859)"/><use xlink:href="#s" transform="translate(0.3166666666666667 0.05384615384615384) scale(0.035761781185958394)"/><use xlink:href="#s" transform="translate(0.44333333333333336 0.05384615384615384) scale(0.039268993242851914)"/><use xlink:href="#s" transform="translate(0.5700000000000001 0.05384615384615384) scale(0.02263064781169986)"/><use xlink:href="#s" transform="translate(0.6966666666666668 0.05384615384615384) scale(0.03150481313961037)"/><use xlink:href="#s" transform="translate(0.12666666666666668 0.10769230769230768) scale(0.029528441158394526)"/><use xlink:href="#s" transform="translate(0.25333333333333335 0.10769230769230768) scale(0.027409959200109302)"/><use xlink:href="#s" transform="translate(0.38000000000000006 0.10769230769230768) scale(0.014025674246674674)"/><use xlink:href="#s" transform="translate(0.5066666666666667 0.10769230769230768) scale(0.035169443850033955)"/><use xlink:href="#s" transform="translate(0.6333333333333334 0.10769230769230768) scale(0.05276509449975404)"/><use xlink:href="#s" transform="translate(0.06333333333333334 0.16153846153846152) scale(0.039068296832076244)"/><use xlink:href="#s" transform="translate(0.19 0.16153846153846152) scale(0.01233723561491478)"/><use xlink:href="#s" transform="translate(0.3166666666666667 0.16153846153846152) scale(0.00947369991225273)"/><use xlink:href="#s" transform="translate(0.44333333333333336 0.16153846153846152) scale(0.025389865963305044)"/><use xlink:href="#s" transform="translate(0.5700000000000001 0.16153846153846152) scale(0.03148940789634129)"/><use xlink:href="#s" transform="translate(0.6966666666666668 0.16153846153846152) scale(0.04103190605910211)"/><use xlink:href="#s" transform="translate(0.12666666666666668 0.21538461538461537) scale(0.025862018129883552)"/><use xlink:href="#s" transform="translate(0.25333333333333335 0.21538461538461537) scale(0.03118644366167098)"/><use xlink:href="#s" transform="translate(0.38000000000000006 0.21538461538461537) scale(0.020667968815031086)"/><use xlink:href="#s" transform="translate(0.5066666666666667 0.21538461538461537) scale(0.04257208753159175)"/><use xlink:href="#s" transform="translate(0.6333333333333334 0.21538461538461537) scale(0.026619803403730335)"/><use xlink:href="#s" transform="translate(0.06333333333333334 0.2692307692307692) scale(0.013942615472539773)"/><use xlink:href="#s" transform="translate(0.19 0.2692307692307692) scale(0.029760957226371707)"/><use xlink:href="#s" transform="translate(0.3166666666666667 0.2692307692307692) scale(0.020888795955321983)"/><use xlink:href="#s" transform="translate(0.44333333333333336 0.2692307692307692) scale(0.03788150466474618)"/><use xlink:href="#s" transform="translate(0.5700000000000001 0.2692307692307692) scale(0.05593937946894497)"/><use xlink:href="#s" transform="translate(0.6966666666666668 0.2692307692307692) scale(0.0650187066454681)"/><use xlink:href="#s" transform="translate(0.12666666666666668 0.32307692307692304) scale(0.021342377315302377)"/><use xlink:href="#s" transform="translate(0.25333333333333335 0.32307692307692304) scale(0.02897929604323141)"/><use xlink:href="#s" transform="translate(0.38000000000000006 0.32307692307692304) scale(0.07528817906953376)"/><use xlink:href="#s" transform="translate(0.5066666666666667 0.32307692307692304) scale(0.028540455754194758)"/><use xlink:href="#s" transform="translate(0.6333333333333334 0.32307692307692304) scale(0.024712391818702165)"/><use xlink:href="#s" transform="translate(0.06333333333333334 0.37692307692307686) scale(0.020482592707106572)"/><use xlink:href="#s" transform="translate(0.19 0.37692307692307686) scale(0.01603053010723511)"/><use xlink:href="#s" transform="translate(0.3166666666666667 0.37692307692307686) scale(0.021256858353734243)"/><use xlink:href="#s" transform="translate(0.44333333333333336 0.37692307692307686) scale(0.016702495775285882)"/><use xlink:href="#s" transform="translate(0.5700000000000001 0.37692307692307686) scale(0.028917282969142987)"/><use xlink:href="#s" transform="translate(0.6966666666666668 0.37692307692307686) scale(0.010497190952208899)"/><use xlink:href="#s" transform="translate(0.12666666666666668 0.43076923076923074) scale(0.011337350927893999)"/><use xlink:href="#s" transform="translate(0.25333333333333335 0.43076923076923074) scale(0.012473333860556402)"/><use xlink:href="#s" transform="translate(0.38000000000000006 0.43076923076923074) scale(0.03328279785752489)"/><use xlink:href="#s" transform="translate(0.5066666666666667 0.43076923076923074) scale(0.016218609608221364)"/><use xlink:href="#s" transform="translate(0.6333333333333334 0.43076923076923074) scale(0.009156690255040352)"/><use xlink:href="#s" transform="translate(0.06333333333333334 0.48461538461538456) scale(0.02163158203399729)"/><use xlink:href="#s" transform="translate(0.19 0.48461538461538456) scale(0.023940815464362473)"/><use xlink:href="#s" transform="translate(0.3166666666666667 0.48461538461538456) scale(0.017414730572458993)"/><use xlink:href="#s" transform="translate(0.44333333333333336 0.48461538461538456) scale(0.03268869901393849)"/><use xlink:href="#s" transform="translate(0.5700000000000001 0.48461538461538456) scale(0.01026030581083351)"/><use xlink:href="#s" transform="translate(0.6966666666666668 0.48461538461538456) scale(0.01423320360096644)"/></svg>
